<?xml version="1.0"?><svg id="a" xmlns="http://www.w3.org/2000/svg" viewBox="0 0 100 49.99"><defs><style>.b{fill:#44AA1A}</style></defs><polygon class="b" points="31.1 .5 31.11 7.91 31.01 8.19 8.22 29.36 -.13 29.36 31.01 .5 31.1 .5"></polygon><path class="b" d="M58.94,49.73h-5.38v-12.87c0-.32-.16-1.21-.25-1.54-.79-2.61-4.67-2.97-6.15-.8-.14.21-.58,1.2-.58,1.4v13.82h-5.38v-12.97c0-.27-.16-1.07-.24-1.36-.81-2.89-5.27-3.1-6.44-.41-.17.39-.4,1.36-.4,1.77v12.97h-5.38v-21.08s.13-.14.14-.14h5.14v1.89c2.97-2.88,8.3-2.9,10.91.46,1.47-1.32,3.15-2.37,5.18-2.54,5.15-.42,8.53,2.3,8.83,7.49v13.91Z"></path><path class="b" d="M74.6,20.59v4.39s-.13.14-.14.14h-2.64c-.06,0-.67.37-.75.47-.07.09-.26.45-.29.56-.02.08-.14.67-.14.71v2.4h3.96v4.06h-3.96v16.41h-5.38v-16.41h-2.17v-4.06h2.17v-3.16c0-2.39,2.55-5.52,5.05-5.52h4.29Z"></path><path class="b" d="M83.95,49.73h-5.38v-21.08s.13-.14.14-.14h5.14v1.98l.76-.7c2.72-2.07,7.2-2.12,9.61.47l-4,4.09c-1.77-2.03-5.36-1.53-6.06,1.21-.07.28-.22,1.05-.22,1.29v12.87Z"></path><path class="b" d="M97.02,24.79c4.41,0,3.31,6.91-.95,5.51-3-.98-2.28-5.52.95-5.51ZM96.85,25.42c-2.6.23-2.55,4.42.24,4.38s2.5-4.62-.24-4.38Z"></path><path class="b" d="M97.68,26.25c.07.01.33.21.38.28.6.71-.24,1.06-.24,1.19,0,.02.21.19.26.3.14.34.15.73.3,1.06-1.38.32-.47-1.08-1.65-1.13-.2,0-.12,0-.14.14-.03.18.04.96,0,.99h-.66v-2.69s.13-.14.14-.14c.42,0,1.26-.07,1.6,0ZM97.42,26.84c-.15-.15-.53-.12-.73-.12v.76c.4.12,1.15-.23.73-.64Z"></path></svg>