<svg xmlns="http://www.w3.org/2000/svg" xmlns:xlink="http://www.w3.org/1999/xlink" version="1.1" id="PDS_Rot" style="width:100%;height:auto;" x="0px" y="0px" viewBox="0 0 1181.705 585.818" xml:space="preserve"><g><g><defs><path id="SVGID_1_" d="M772.086,206.642l-105.035,8.411c45.016,41.834,87.543,75.766,127.371,102.59                                                                 c27.018,8.992,62.736,12.163,104.491-4.697c-30.703-25.227-50.565-48.661-86.763-88.302                                                                 c-16.24-17.811-39.056-18.002-40.03-18.002H772.086z"></path></defs><clipPath id="SVGID_2_"><use xlink:href="#SVGID_1_" overflow="visible"></use></clipPath><linearGradient id="SVGID_3_" gradientUnits="userSpaceOnUse" x1="452.9609" y1="234.8403" x2="458.5785" y2="234.8403" gradientTransform="matrix(38.4954 22.2253 22.2253 -38.4954 -21983.3574 -822.2328)"><stop offset="0" style="stop-color:#D50A3B"></stop><stop offset="0.2" style="stop-color:#D50A3B"></stop><stop offset="0.8" style="stop-color:#94190E"></stop><stop offset="1" style="stop-color:#94190E"></stop></linearGradient><polygon clip-path="url(#SVGID_2_)" fill="url(#SVGID_3_)" points="725.021,106.244 952.239,237.433 840.945,430.206                                                              613.72,299.015   "></polygon></g><g><defs><path id="SVGID_4_" d="M982.978,254.984c-78.122,76.53-144.787,77.232-188.556,62.659                                                                 c44.006,27.159,103.202,56.553,159.283,60.762c0.938,0.077,1.883,0.125,2.826,0.158h5.46                                                                 c80.146-2.82,188.527-127.453,213.695-229.967c0.229-0.959,0.471-1.854,0.691-2.751c0-0.051,0-0.095,0.017-0.219                                                                 c5.311-21.627-2.354-38.337-6.048-44.743C1150.984,70.19,1109.181,0,1109.181,0C1101.51,61.885,1055.579,183.874,982.978,254.984                                                                 "></path></defs><clipPath id="SVGID_5_"><use xlink:href="#SVGID_4_" overflow="visible"></use></clipPath><linearGradient id="SVGID_6_" gradientUnits="userSpaceOnUse" x1="453.6846" y1="233.9976" x2="459.3051" y2="233.9976" gradientTransform="matrix(68.3072 0 0 -68.3072 -30195.5273 16172.9473)"><stop offset="0" style="stop-color:#D50A3B"></stop><stop offset="0.3" style="stop-color:#D50A3B"></stop><stop offset="0.9" style="stop-color:#EA9893"></stop><stop offset="1" style="stop-color:#EA9893"></stop></linearGradient><rect x="794.422" clip-path="url(#SVGID_5_)" fill="url(#SVGID_6_)" width="387.283" height="378.563"></rect></g></g><path fill="#575656" d="M586.085,451.803c0-19.771-4.644-39.134-37.172-58.887l-50.756-30.985                                                     c-9.664-5.829-15.493-9.682-15.493-15.886c0-11.999,8.147-16.276,26.733-16.276c22.063,0,53.058,3.085,63.914,4.652h1.551                                                     c3.878,0,6.196-2.709,6.196-7.38v-22.438c0-4.662-2.318-7.764-6.979-8.914c-19.754-4.262-37.556-7.772-68.942-7.772                                                     c-49.197,0-73.595,19.396-73.595,58.128c0,22.464,13.558,41.825,32.537,53.45l53.066,32.536                                                     c12.399,7.737,17.053,12.408,17.053,19.771c0,10.447-3.486,18.577-27.5,18.577c-11.641,0-46.496-1.926-65.099-4.262h-1.543                                                     c-3.869,0-6.596,3.103-6.596,6.205v23.247c0,4.652,2.727,7.755,7.372,8.896c21.688,5.813,54.225,7.772,69.334,7.772                                                     C560.902,512.24,586.085,485.498,586.085,451.803 M341.66,467.67c-7.363,1.551-23.248,2.71-37.189,2.71                                                     c-33.321,0-41.433-23.623-41.433-55.393v-29.826c0-31.753,8.112-55.393,41.433-55.393c9.297,0,26.35,1.177,37.189,2.727V467.67z                                                     M392.792,491.702V222.069c0-4.261-3.485-7.729-7.746-7.729h-35.639c-4.261,0-7.747,3.469-7.747,7.729v68.576                                                     c-14.334-1.942-27.892-2.728-37.189-2.728c-62.363,0-92.59,36.807-92.59,97.244v29.826c0,60.421,30.227,97.252,92.59,97.252                                                     c24.798,0,53.858-3.886,77.873-10.09C391.241,499.815,392.792,497.498,392.792,491.702 M129.763,414.988                                                     c0,31.77-8.13,55.393-41.451,55.393c-9.297,0-26.333-1.159-37.189-2.71V332.496c7.363-1.55,23.248-2.727,37.189-2.727                                                     c33.321,0,41.451,23.64,41.451,55.393V414.988z M180.903,414.988v-29.826c0-60.438-30.21-97.244-92.591-97.244                                                     c-24.782,0-53.841,3.895-77.856,10.09C1.534,300.326,0,302.653,0,308.463V578.08c0,4.244,3.477,7.738,7.729,7.738h35.665                                                     c4.252,0,7.729-3.494,7.729-7.738v-68.566c14.326,1.926,27.892,2.727,37.189,2.727C150.693,512.24,180.903,475.409,180.903,414.988"></path></svg>